<svg fill="none" xmlns="http://www.w3.org/2000/svg" viewBox="0 0 750 98">
    <g filter="url(#filter0_d)">
        <mask id="a" maskUnits="userSpaceOnUse" x="4.39999" y=".399994" width="741" height="90" fill="#000">
            <path fill="#fff" d="M4.39999.399994h741v90h-741z"/>
            <path d="M73.88 79.384c15.744 0 31.2-6.336 31.2-22.08 0-9.408-6.144-14.112-11.232-15.36 5.088-2.496 11.328-7.584 11.328-16.8 0-11.328-9.984-15.74401-25.44-15.74401-21.024 0-29.088.67201-35.328 1.72801C24.536 14.68 13.4 27.928 13.4 41.56c0 9.888 6.72 16.416 15.36 16.416 6.528 0 11.808-3.84 11.808-9.792 0-5.088-3.456-7.68-7.296-7.68-2.304 0-3.648 1.344-5.376 1.344-1.632 0-3.552-1.248-3.552-4.896 0-8.544 11.808-17.472 24.576-17.472 3.648 0 3.36 2.304 2.88 6.624L47.192 63.16c-.48 4.032-1.536 5.952-3.36 6.624-2.592.768-5.088 2.016-5.088 4.8 0 3.264 3.456 4.608 9.504 4.608 2.784 0 6.336-.192 9.408-.192 3.936 0 10.656.384 16.224.384zm-7.104-10.368c-.48-.96-.096-4.128.192-6.624l1.728-14.112c2.016-.192 4.32-.288 5.856-.288 6.528 0 10.176 3.168 10.176 9.408 0 7.776-5.28 13.056-12.48 13.056-2.688 0-4.992-.384-5.472-1.44zm2.976-29.568l1.632-13.344c.48-3.36.672-5.088 1.248-6.048.672-.96 2.496-1.344 4.992-1.344 5.952 0 8.352 3.84 8.352 8.448 0 7.872-4.32 12.576-10.848 12.576-1.632 0-3.456-.096-5.376-.288zM130.984 80.536c9.216 0 16.32-4.224 20.544-9.024 2.592-2.88 4.224-5.952 4.224-8.352 0-2.112-1.152-3.168-2.784-3.168-1.056 0-2.208.48-3.744 1.44-2.976 2.112-6.24 4.032-10.848 4.032-6.144 0-10.272-2.976-11.808-8.16l1.536-.096c19.68-1.056 27.456-8.352 27.456-15.936 0-6.336-5.472-12.192-16.512-12.192-16.896 0-29.76 14.016-29.76 29.952 0 12.768 8.352 21.504 21.696 21.504zm-5.088-28.8c.192-8.064 5.184-14.784 10.752-14.784 2.88 0 4.512 1.728 4.512 4.128 0 4.032-4.32 9.312-14.88 10.656h-.384zM198.704 80.056c3.456 0 11.232-1.728 15.84-4.512 1.536-.96 2.784-2.208 2.784-4.128 0-1.632-1.344-2.88-2.976-3.36-1.536-.672-1.536-3.552-1.152-6.72l1.632-13.44c.192-1.536.384-2.88.384-4.896 0-8.736-4.512-13.92-12.576-13.92-7.968 0-14.496 4.896-18.24 11.424.384-3.168.672-5.088.672-6.048 0-2.784-2.304-4.896-5.184-4.896-3.264 0-11.232 1.728-15.936 4.512-1.44.96-2.784 2.208-2.784 4.032 0 1.536 1.44 2.88 3.072 3.264 1.248.672 1.632 3.648 1.248 6.624l-2.304 18.624c-.384 3.264-.768 5.856-.768 7.296 0 4.32 2.016 5.856 7.2 5.856 6.816 0 10.752-1.92 11.328-6.816l2.4-19.68c1.536-8.352 5.28-11.904 8.64-11.904 3.264 0 4.128 2.88 4.128 6.048 0 2.304-.288 4.896-.576 7.104l-1.248 9.888c-.576 5.28-1.152 8.928-1.152 10.272 0 3.648 2.208 5.376 5.568 5.376zM262.261 80.344c14.016 0 24.672-9.984 31.008-20.736 3.84-6.144 7.584-14.976 9.984-23.328 2.208 9.984 4.32 19.488 6.336 27.456 1.248 4.512 3.264 7.104 6.816 7.104 3.072 0 5.28-1.824 8.256-6.72 5.088-8.64 10.752-18.432 16.128-28.704 0 1.92 0 4.416-.192 7.296l-.96 20.64c-.192 3.936-1.056 5.856-3.072 6.528-2.688.576-5.28 1.824-5.28 4.512 0 4.224 6.624 5.376 16.416 5.376 10.176 0 17.376-1.248 17.376-6.144 0-1.92-1.536-2.976-4.224-3.744-1.92-.672-2.112-2.784-1.92-7.296l1.632-34.848c.192-4.512 1.152-7.2 3.072-7.872 2.4-.672 5.28-2.208 5.28-5.376 0-3.456-3.936-4.99201-13.056-4.99201S343.957 11.032 340.885 15.832c-3.936 6.048-9.696 16.512-17.088 29.76-2.688-11.232-6.048-23.904-7.776-29.568-1.632-5.088-4.896-6.43201-14.4-6.43201-11.424 0-16.224 1.92001-16.224 5.85601 0 2.688 2.496 3.648 5.76 4.512 3.264.864 3.936 4.128 3.456 8.256-.48 5.472-5.088 18.144-9.408 25.248-6.048 10.368-13.728 15.936-22.464 15.936-10.368 0-15.168-6.816-15.168-13.152 0-5.088 3.168-9.216 7.296-9.216 5.76 0 6.048 6.816 12.192 6.816 4.896 0 8.256-3.936 8.256-8.736 0-6.336-6.048-11.04-13.92-11.04-11.904 0-23.04 9.984-23.04 23.328 0 11.52 8.832 22.944 23.904 22.944zM389.453 80.536c8.544 0 15.264-3.936 19.392-8.352 2.88-3.072 4.896-6.624 4.896-9.6 0-2.112-1.056-3.168-2.688-3.168-1.344 0-2.4.768-3.648 1.632-3.648 2.4-6.432 4.224-10.176 4.224-7.2 0-11.808-5.28-11.808-14.688 0-7.968 3.744-13.92 8.16-13.92 2.976 0 4.32 3.36 5.088 6.144.96 4.32 2.592 8.544 7.776 8.544 4.704 0 7.872-3.552 7.872-8.544 0-7.776-7.392-14.016-18.144-14.016-16.032 0-28.224 13.728-28.224 29.664 0 13.44 8.736 22.08 21.504 22.08zM427.904 79.768c9.312 0 14.4-1.92 14.4-5.952 0-2.304-2.112-4.128-4.8-5.088-2.592-1.152-2.784-4.416-1.728-9.984l2.304-13.152c.576-3.552 1.248-7.104 1.92-10.368 2.688 9.408 5.568 19.296 8.256 27.168 1.728 4.896 3.744 7.296 7.104 7.296 2.976 0 4.992-2.112 8.064-7.008 4.416-7.488 9.696-17.568 14.688-27.648 0 1.92-.096 4.224-.192 7.68l-1.056 20.64c-.192 3.84-.768 5.76-2.88 6.528-2.592.672-5.184 1.824-5.184 4.608 0 4.128 6.624 5.28 16.032 5.28 10.176 0 17.28-1.248 17.28-6.24 0-1.824-1.536-2.88-4.224-3.648-1.92-.672-2.016-2.976-1.824-7.296l1.536-34.848c.192-4.704 1.152-7.2 3.072-7.872 2.4-.672 5.376-2.112 5.376-5.472 0-3.36-4.032-4.89601-13.344-4.89601-8.64 0-11.616 1.53601-14.784 6.24001-4.512 7.776-10.08 18.048-15.84 28.8-2.976-10.08-6.336-21.12-9.024-28.608-2.016-5.184-4.128-6.43201-12.672-6.43201-10.848 0-16.128 1.63201-16.128 5.95201 0 2.688 3.264 3.936 5.472 4.704 1.92.96 1.728 4.224.768 9.024l-5.472 28.32c-1.152 6.048-2.496 9.984-4.8 10.848-3.552 1.152-5.952 3.072-5.952 5.856 0 4.224 5.376 5.568 13.632 5.568zM521.329 80.344c7.968 0 13.824-4.704 17.088-10.944-.288 2.112-.48 3.84-.48 4.896 0 3.072 1.728 5.76 5.568 5.76 3.36 0 11.52-2.112 15.648-4.512 2.208-1.344 3.072-2.592 3.072-4.128 0-2.112-1.92-3.456-3.648-3.84-1.728-.864-2.112-4.128-1.632-7.968l1.536-11.328c1.056-8.64 2.208-12.576 2.208-14.784 0-2.016-1.44-3.936-4.512-3.936-3.168 0-6.432 1.344-9.696 3.648-3.648-2.496-8.448-4.128-13.536-4.128-16.8 0-28.032 14.4-28.032 31.104.096 12.096 6.816 20.16 16.416 20.16zm2.784-20.064c0-10.272 4.608-23.712 10.752-23.712 3.36 0 5.28 2.784 5.28 8.352 0 10.656-4.224 24.48-10.656 24.48-3.264 0-5.376-2.976-5.376-9.12zM605.298 80.056c3.456 0 11.232-1.728 15.84-4.512 1.536-.96 2.784-2.208 2.784-4.128 0-1.632-1.344-2.88-2.976-3.36-1.536-.672-1.536-3.552-1.152-6.72l1.632-13.44c.192-1.536.384-2.88.384-4.896 0-8.736-4.512-13.92-12.576-13.92-7.968 0-14.496 4.896-18.24 11.424.384-3.168.672-5.088.672-6.048 0-2.784-2.304-4.896-5.184-4.896-3.264 0-11.232 1.728-15.936 4.512-1.44.96-2.784 2.208-2.784 4.032 0 1.536 1.44 2.88 3.072 3.264 1.248.672 1.632 3.648 1.248 6.624l-2.304 18.624c-.384 3.264-.768 5.856-.768 7.296 0 4.32 2.016 5.856 7.2 5.856 6.816 0 10.752-1.92 11.328-6.816l2.4-19.68c1.536-8.352 5.28-11.904 8.64-11.904 3.264 0 4.128 2.88 4.128 6.048 0 2.304-.288 4.896-.576 7.104l-1.248 9.888c-.576 5.28-1.152 8.928-1.152 10.272 0 3.648 2.208 5.376 5.568 5.376zM645.173 80.536c7.68 0 14.016-4.704 17.664-11.04-.288 2.784-.48 4.608-.48 5.472 0 2.784 2.112 5.088 5.376 5.088 2.976 0 11.616-1.92 15.648-4.512 1.44-.864 2.784-2.208 2.784-3.936 0-1.728-1.344-2.784-3.072-3.456-1.728-.864-1.536-3.744-1.248-6.432l2.016-16.128c.672-5.28 1.248-9.12 1.248-10.848 0-3.36-2.304-5.184-5.568-5.184-3.936 0-12.096 2.304-15.648 4.608-1.536.96-2.784 2.112-2.784 3.936 0 1.728 1.344 2.976 3.072 3.552 1.536.96 1.248 3.936.864 6.624l-.672 5.376c-1.152 10.272-5.28 14.592-8.832 14.592-3.072 0-4.032-2.88-4.032-6.336 0-2.208.288-4.608.576-6.816l1.248-9.888c.672-5.76 1.152-8.736 1.152-10.368 0-3.552-2.304-5.28-5.664-5.28-3.456 0-11.712 1.92-15.936 4.512-1.536.96-2.784 2.208-2.784 3.936 0 1.824 1.44 2.976 3.36 3.648 1.536.864 1.344 3.648.96 6.624l-1.632 13.536c-.192 1.44-.384 2.688-.384 4.608 0 8.928 4.704 14.112 12.768 14.112zM711.071 80.536c14.4 0 23.424-6.336 23.424-16.224 0-8.448-5.76-12.192-12.864-15.648-7.776-3.744-9.792-4.992-9.792-7.872 0-2.496 2.304-4.128 5.184-4.128 2.88 0 4.992 1.536 6.528 3.456 1.824 2.208 3.552 6.048 7.296 6.048 3.36 0 5.376-2.784 5.376-5.856 0-6.528-9.312-11.52-20.544-11.52-13.152 0-22.08 6.72-22.08 16.032 0 8.16 6.24 12.384 13.152 15.84 6.048 2.976 8.928 4.032 8.928 7.488 0 2.592-2.4 4.416-5.856 4.416-3.072 0-5.76-1.248-7.968-4.992-1.056-1.92-2.688-5.664-6.624-5.664-3.264 0-5.568 2.688-5.568 6.432 0 6.72 8.544 12.192 21.408 12.192z"/>
        </mask>
        <path d="M73.88 79.384c15.744 0 31.2-6.336 31.2-22.08 0-9.408-6.144-14.112-11.232-15.36 5.088-2.496 11.328-7.584 11.328-16.8 0-11.328-9.984-15.74401-25.44-15.74401-21.024 0-29.088.67201-35.328 1.72801C24.536 14.68 13.4 27.928 13.4 41.56c0 9.888 6.72 16.416 15.36 16.416 6.528 0 11.808-3.84 11.808-9.792 0-5.088-3.456-7.68-7.296-7.68-2.304 0-3.648 1.344-5.376 1.344-1.632 0-3.552-1.248-3.552-4.896 0-8.544 11.808-17.472 24.576-17.472 3.648 0 3.36 2.304 2.88 6.624L47.192 63.16c-.48 4.032-1.536 5.952-3.36 6.624-2.592.768-5.088 2.016-5.088 4.8 0 3.264 3.456 4.608 9.504 4.608 2.784 0 6.336-.192 9.408-.192 3.936 0 10.656.384 16.224.384zm-7.104-10.368c-.48-.96-.096-4.128.192-6.624l1.728-14.112c2.016-.192 4.32-.288 5.856-.288 6.528 0 10.176 3.168 10.176 9.408 0 7.776-5.28 13.056-12.48 13.056-2.688 0-4.992-.384-5.472-1.44zm2.976-29.568l1.632-13.344c.48-3.36.672-5.088 1.248-6.048.672-.96 2.496-1.344 4.992-1.344 5.952 0 8.352 3.84 8.352 8.448 0 7.872-4.32 12.576-10.848 12.576-1.632 0-3.456-.096-5.376-.288zM130.984 80.536c9.216 0 16.32-4.224 20.544-9.024 2.592-2.88 4.224-5.952 4.224-8.352 0-2.112-1.152-3.168-2.784-3.168-1.056 0-2.208.48-3.744 1.44-2.976 2.112-6.24 4.032-10.848 4.032-6.144 0-10.272-2.976-11.808-8.16l1.536-.096c19.68-1.056 27.456-8.352 27.456-15.936 0-6.336-5.472-12.192-16.512-12.192-16.896 0-29.76 14.016-29.76 29.952 0 12.768 8.352 21.504 21.696 21.504zm-5.088-28.8c.192-8.064 5.184-14.784 10.752-14.784 2.88 0 4.512 1.728 4.512 4.128 0 4.032-4.32 9.312-14.88 10.656h-.384zM198.704 80.056c3.456 0 11.232-1.728 15.84-4.512 1.536-.96 2.784-2.208 2.784-4.128 0-1.632-1.344-2.88-2.976-3.36-1.536-.672-1.536-3.552-1.152-6.72l1.632-13.44c.192-1.536.384-2.88.384-4.896 0-8.736-4.512-13.92-12.576-13.92-7.968 0-14.496 4.896-18.24 11.424.384-3.168.672-5.088.672-6.048 0-2.784-2.304-4.896-5.184-4.896-3.264 0-11.232 1.728-15.936 4.512-1.44.96-2.784 2.208-2.784 4.032 0 1.536 1.44 2.88 3.072 3.264 1.248.672 1.632 3.648 1.248 6.624l-2.304 18.624c-.384 3.264-.768 5.856-.768 7.296 0 4.32 2.016 5.856 7.2 5.856 6.816 0 10.752-1.92 11.328-6.816l2.4-19.68c1.536-8.352 5.28-11.904 8.64-11.904 3.264 0 4.128 2.88 4.128 6.048 0 2.304-.288 4.896-.576 7.104l-1.248 9.888c-.576 5.28-1.152 8.928-1.152 10.272 0 3.648 2.208 5.376 5.568 5.376zM262.261 80.344c14.016 0 24.672-9.984 31.008-20.736 3.84-6.144 7.584-14.976 9.984-23.328 2.208 9.984 4.32 19.488 6.336 27.456 1.248 4.512 3.264 7.104 6.816 7.104 3.072 0 5.28-1.824 8.256-6.72 5.088-8.64 10.752-18.432 16.128-28.704 0 1.92 0 4.416-.192 7.296l-.96 20.64c-.192 3.936-1.056 5.856-3.072 6.528-2.688.576-5.28 1.824-5.28 4.512 0 4.224 6.624 5.376 16.416 5.376 10.176 0 17.376-1.248 17.376-6.144 0-1.92-1.536-2.976-4.224-3.744-1.92-.672-2.112-2.784-1.92-7.296l1.632-34.848c.192-4.512 1.152-7.2 3.072-7.872 2.4-.672 5.28-2.208 5.28-5.376 0-3.456-3.936-4.99201-13.056-4.99201S343.957 11.032 340.885 15.832c-3.936 6.048-9.696 16.512-17.088 29.76-2.688-11.232-6.048-23.904-7.776-29.568-1.632-5.088-4.896-6.43201-14.4-6.43201-11.424 0-16.224 1.92001-16.224 5.85601 0 2.688 2.496 3.648 5.76 4.512 3.264.864 3.936 4.128 3.456 8.256-.48 5.472-5.088 18.144-9.408 25.248-6.048 10.368-13.728 15.936-22.464 15.936-10.368 0-15.168-6.816-15.168-13.152 0-5.088 3.168-9.216 7.296-9.216 5.76 0 6.048 6.816 12.192 6.816 4.896 0 8.256-3.936 8.256-8.736 0-6.336-6.048-11.04-13.92-11.04-11.904 0-23.04 9.984-23.04 23.328 0 11.52 8.832 22.944 23.904 22.944zM389.453 80.536c8.544 0 15.264-3.936 19.392-8.352 2.88-3.072 4.896-6.624 4.896-9.6 0-2.112-1.056-3.168-2.688-3.168-1.344 0-2.4.768-3.648 1.632-3.648 2.4-6.432 4.224-10.176 4.224-7.2 0-11.808-5.28-11.808-14.688 0-7.968 3.744-13.92 8.16-13.92 2.976 0 4.32 3.36 5.088 6.144.96 4.32 2.592 8.544 7.776 8.544 4.704 0 7.872-3.552 7.872-8.544 0-7.776-7.392-14.016-18.144-14.016-16.032 0-28.224 13.728-28.224 29.664 0 13.44 8.736 22.08 21.504 22.08zM427.904 79.768c9.312 0 14.4-1.92 14.4-5.952 0-2.304-2.112-4.128-4.8-5.088-2.592-1.152-2.784-4.416-1.728-9.984l2.304-13.152c.576-3.552 1.248-7.104 1.92-10.368 2.688 9.408 5.568 19.296 8.256 27.168 1.728 4.896 3.744 7.296 7.104 7.296 2.976 0 4.992-2.112 8.064-7.008 4.416-7.488 9.696-17.568 14.688-27.648 0 1.92-.096 4.224-.192 7.68l-1.056 20.64c-.192 3.84-.768 5.76-2.88 6.528-2.592.672-5.184 1.824-5.184 4.608 0 4.128 6.624 5.28 16.032 5.28 10.176 0 17.28-1.248 17.28-6.24 0-1.824-1.536-2.88-4.224-3.648-1.92-.672-2.016-2.976-1.824-7.296l1.536-34.848c.192-4.704 1.152-7.2 3.072-7.872 2.4-.672 5.376-2.112 5.376-5.472 0-3.36-4.032-4.89601-13.344-4.89601-8.64 0-11.616 1.53601-14.784 6.24001-4.512 7.776-10.08 18.048-15.84 28.8-2.976-10.08-6.336-21.12-9.024-28.608-2.016-5.184-4.128-6.43201-12.672-6.43201-10.848 0-16.128 1.63201-16.128 5.95201 0 2.688 3.264 3.936 5.472 4.704 1.92.96 1.728 4.224.768 9.024l-5.472 28.32c-1.152 6.048-2.496 9.984-4.8 10.848-3.552 1.152-5.952 3.072-5.952 5.856 0 4.224 5.376 5.568 13.632 5.568zM521.329 80.344c7.968 0 13.824-4.704 17.088-10.944-.288 2.112-.48 3.84-.48 4.896 0 3.072 1.728 5.76 5.568 5.76 3.36 0 11.52-2.112 15.648-4.512 2.208-1.344 3.072-2.592 3.072-4.128 0-2.112-1.92-3.456-3.648-3.84-1.728-.864-2.112-4.128-1.632-7.968l1.536-11.328c1.056-8.64 2.208-12.576 2.208-14.784 0-2.016-1.44-3.936-4.512-3.936-3.168 0-6.432 1.344-9.696 3.648-3.648-2.496-8.448-4.128-13.536-4.128-16.8 0-28.032 14.4-28.032 31.104.096 12.096 6.816 20.16 16.416 20.16zm2.784-20.064c0-10.272 4.608-23.712 10.752-23.712 3.36 0 5.28 2.784 5.28 8.352 0 10.656-4.224 24.48-10.656 24.48-3.264 0-5.376-2.976-5.376-9.12zM605.298 80.056c3.456 0 11.232-1.728 15.84-4.512 1.536-.96 2.784-2.208 2.784-4.128 0-1.632-1.344-2.88-2.976-3.36-1.536-.672-1.536-3.552-1.152-6.72l1.632-13.44c.192-1.536.384-2.88.384-4.896 0-8.736-4.512-13.92-12.576-13.92-7.968 0-14.496 4.896-18.24 11.424.384-3.168.672-5.088.672-6.048 0-2.784-2.304-4.896-5.184-4.896-3.264 0-11.232 1.728-15.936 4.512-1.44.96-2.784 2.208-2.784 4.032 0 1.536 1.44 2.88 3.072 3.264 1.248.672 1.632 3.648 1.248 6.624l-2.304 18.624c-.384 3.264-.768 5.856-.768 7.296 0 4.32 2.016 5.856 7.2 5.856 6.816 0 10.752-1.92 11.328-6.816l2.4-19.68c1.536-8.352 5.28-11.904 8.64-11.904 3.264 0 4.128 2.88 4.128 6.048 0 2.304-.288 4.896-.576 7.104l-1.248 9.888c-.576 5.28-1.152 8.928-1.152 10.272 0 3.648 2.208 5.376 5.568 5.376zM645.173 80.536c7.68 0 14.016-4.704 17.664-11.04-.288 2.784-.48 4.608-.48 5.472 0 2.784 2.112 5.088 5.376 5.088 2.976 0 11.616-1.92 15.648-4.512 1.44-.864 2.784-2.208 2.784-3.936 0-1.728-1.344-2.784-3.072-3.456-1.728-.864-1.536-3.744-1.248-6.432l2.016-16.128c.672-5.28 1.248-9.12 1.248-10.848 0-3.36-2.304-5.184-5.568-5.184-3.936 0-12.096 2.304-15.648 4.608-1.536.96-2.784 2.112-2.784 3.936 0 1.728 1.344 2.976 3.072 3.552 1.536.96 1.248 3.936.864 6.624l-.672 5.376c-1.152 10.272-5.28 14.592-8.832 14.592-3.072 0-4.032-2.88-4.032-6.336 0-2.208.288-4.608.576-6.816l1.248-9.888c.672-5.76 1.152-8.736 1.152-10.368 0-3.552-2.304-5.28-5.664-5.28-3.456 0-11.712 1.92-15.936 4.512-1.536.96-2.784 2.208-2.784 3.936 0 1.824 1.44 2.976 3.36 3.648 1.536.864 1.344 3.648.96 6.624l-1.632 13.536c-.192 1.44-.384 2.688-.384 4.608 0 8.928 4.704 14.112 12.768 14.112zM711.071 80.536c14.4 0 23.424-6.336 23.424-16.224 0-8.448-5.76-12.192-12.864-15.648-7.776-3.744-9.792-4.992-9.792-7.872 0-2.496 2.304-4.128 5.184-4.128 2.88 0 4.992 1.536 6.528 3.456 1.824 2.208 3.552 6.048 7.296 6.048 3.36 0 5.376-2.784 5.376-5.856 0-6.528-9.312-11.52-20.544-11.52-13.152 0-22.08 6.72-22.08 16.032 0 8.16 6.24 12.384 13.152 15.84 6.048 2.976 8.928 4.032 8.928 7.488 0 2.592-2.4 4.416-5.856 4.416-3.072 0-5.76-1.248-7.968-4.992-1.056-1.92-2.688-5.664-6.624-5.664-3.264 0-5.568 2.688-5.568 6.432 0 6.72 8.544 12.192 21.408 12.192z" fill="#000"/>
        <path d="M73.88 79.384c15.744 0 31.2-6.336 31.2-22.08 0-9.408-6.144-14.112-11.232-15.36 5.088-2.496 11.328-7.584 11.328-16.8 0-11.328-9.984-15.74401-25.44-15.74401-21.024 0-29.088.67201-35.328 1.72801C24.536 14.68 13.4 27.928 13.4 41.56c0 9.888 6.72 16.416 15.36 16.416 6.528 0 11.808-3.84 11.808-9.792 0-5.088-3.456-7.68-7.296-7.68-2.304 0-3.648 1.344-5.376 1.344-1.632 0-3.552-1.248-3.552-4.896 0-8.544 11.808-17.472 24.576-17.472 3.648 0 3.36 2.304 2.88 6.624L47.192 63.16c-.48 4.032-1.536 5.952-3.36 6.624-2.592.768-5.088 2.016-5.088 4.8 0 3.264 3.456 4.608 9.504 4.608 2.784 0 6.336-.192 9.408-.192 3.936 0 10.656.384 16.224.384zm-7.104-10.368c-.48-.96-.096-4.128.192-6.624l1.728-14.112c2.016-.192 4.32-.288 5.856-.288 6.528 0 10.176 3.168 10.176 9.408 0 7.776-5.28 13.056-12.48 13.056-2.688 0-4.992-.384-5.472-1.44zm2.976-29.568l1.632-13.344c.48-3.36.672-5.088 1.248-6.048.672-.96 2.496-1.344 4.992-1.344 5.952 0 8.352 3.84 8.352 8.448 0 7.872-4.32 12.576-10.848 12.576-1.632 0-3.456-.096-5.376-.288zM130.984 80.536c9.216 0 16.32-4.224 20.544-9.024 2.592-2.88 4.224-5.952 4.224-8.352 0-2.112-1.152-3.168-2.784-3.168-1.056 0-2.208.48-3.744 1.44-2.976 2.112-6.24 4.032-10.848 4.032-6.144 0-10.272-2.976-11.808-8.16l1.536-.096c19.68-1.056 27.456-8.352 27.456-15.936 0-6.336-5.472-12.192-16.512-12.192-16.896 0-29.76 14.016-29.76 29.952 0 12.768 8.352 21.504 21.696 21.504zm-5.088-28.8c.192-8.064 5.184-14.784 10.752-14.784 2.88 0 4.512 1.728 4.512 4.128 0 4.032-4.32 9.312-14.88 10.656h-.384zM198.704 80.056c3.456 0 11.232-1.728 15.84-4.512 1.536-.96 2.784-2.208 2.784-4.128 0-1.632-1.344-2.88-2.976-3.36-1.536-.672-1.536-3.552-1.152-6.72l1.632-13.44c.192-1.536.384-2.88.384-4.896 0-8.736-4.512-13.92-12.576-13.92-7.968 0-14.496 4.896-18.24 11.424.384-3.168.672-5.088.672-6.048 0-2.784-2.304-4.896-5.184-4.896-3.264 0-11.232 1.728-15.936 4.512-1.44.96-2.784 2.208-2.784 4.032 0 1.536 1.44 2.88 3.072 3.264 1.248.672 1.632 3.648 1.248 6.624l-2.304 18.624c-.384 3.264-.768 5.856-.768 7.296 0 4.32 2.016 5.856 7.2 5.856 6.816 0 10.752-1.92 11.328-6.816l2.4-19.68c1.536-8.352 5.28-11.904 8.64-11.904 3.264 0 4.128 2.88 4.128 6.048 0 2.304-.288 4.896-.576 7.104l-1.248 9.888c-.576 5.28-1.152 8.928-1.152 10.272 0 3.648 2.208 5.376 5.568 5.376zM262.261 80.344c14.016 0 24.672-9.984 31.008-20.736 3.84-6.144 7.584-14.976 9.984-23.328 2.208 9.984 4.32 19.488 6.336 27.456 1.248 4.512 3.264 7.104 6.816 7.104 3.072 0 5.28-1.824 8.256-6.72 5.088-8.64 10.752-18.432 16.128-28.704 0 1.92 0 4.416-.192 7.296l-.96 20.64c-.192 3.936-1.056 5.856-3.072 6.528-2.688.576-5.28 1.824-5.28 4.512 0 4.224 6.624 5.376 16.416 5.376 10.176 0 17.376-1.248 17.376-6.144 0-1.92-1.536-2.976-4.224-3.744-1.92-.672-2.112-2.784-1.92-7.296l1.632-34.848c.192-4.512 1.152-7.2 3.072-7.872 2.4-.672 5.28-2.208 5.28-5.376 0-3.456-3.936-4.99201-13.056-4.99201S343.957 11.032 340.885 15.832c-3.936 6.048-9.696 16.512-17.088 29.76-2.688-11.232-6.048-23.904-7.776-29.568-1.632-5.088-4.896-6.43201-14.4-6.43201-11.424 0-16.224 1.92001-16.224 5.85601 0 2.688 2.496 3.648 5.76 4.512 3.264.864 3.936 4.128 3.456 8.256-.48 5.472-5.088 18.144-9.408 25.248-6.048 10.368-13.728 15.936-22.464 15.936-10.368 0-15.168-6.816-15.168-13.152 0-5.088 3.168-9.216 7.296-9.216 5.76 0 6.048 6.816 12.192 6.816 4.896 0 8.256-3.936 8.256-8.736 0-6.336-6.048-11.04-13.92-11.04-11.904 0-23.04 9.984-23.04 23.328 0 11.52 8.832 22.944 23.904 22.944zM389.453 80.536c8.544 0 15.264-3.936 19.392-8.352 2.88-3.072 4.896-6.624 4.896-9.6 0-2.112-1.056-3.168-2.688-3.168-1.344 0-2.4.768-3.648 1.632-3.648 2.4-6.432 4.224-10.176 4.224-7.2 0-11.808-5.28-11.808-14.688 0-7.968 3.744-13.92 8.16-13.92 2.976 0 4.32 3.36 5.088 6.144.96 4.32 2.592 8.544 7.776 8.544 4.704 0 7.872-3.552 7.872-8.544 0-7.776-7.392-14.016-18.144-14.016-16.032 0-28.224 13.728-28.224 29.664 0 13.44 8.736 22.08 21.504 22.08zM427.904 79.768c9.312 0 14.4-1.92 14.4-5.952 0-2.304-2.112-4.128-4.8-5.088-2.592-1.152-2.784-4.416-1.728-9.984l2.304-13.152c.576-3.552 1.248-7.104 1.92-10.368 2.688 9.408 5.568 19.296 8.256 27.168 1.728 4.896 3.744 7.296 7.104 7.296 2.976 0 4.992-2.112 8.064-7.008 4.416-7.488 9.696-17.568 14.688-27.648 0 1.92-.096 4.224-.192 7.68l-1.056 20.64c-.192 3.84-.768 5.76-2.88 6.528-2.592.672-5.184 1.824-5.184 4.608 0 4.128 6.624 5.28 16.032 5.28 10.176 0 17.28-1.248 17.28-6.24 0-1.824-1.536-2.88-4.224-3.648-1.92-.672-2.016-2.976-1.824-7.296l1.536-34.848c.192-4.704 1.152-7.2 3.072-7.872 2.4-.672 5.376-2.112 5.376-5.472 0-3.36-4.032-4.89601-13.344-4.89601-8.64 0-11.616 1.53601-14.784 6.24001-4.512 7.776-10.08 18.048-15.84 28.8-2.976-10.08-6.336-21.12-9.024-28.608-2.016-5.184-4.128-6.43201-12.672-6.43201-10.848 0-16.128 1.63201-16.128 5.95201 0 2.688 3.264 3.936 5.472 4.704 1.92.96 1.728 4.224.768 9.024l-5.472 28.32c-1.152 6.048-2.496 9.984-4.8 10.848-3.552 1.152-5.952 3.072-5.952 5.856 0 4.224 5.376 5.568 13.632 5.568zM521.329 80.344c7.968 0 13.824-4.704 17.088-10.944-.288 2.112-.48 3.84-.48 4.896 0 3.072 1.728 5.76 5.568 5.76 3.36 0 11.52-2.112 15.648-4.512 2.208-1.344 3.072-2.592 3.072-4.128 0-2.112-1.92-3.456-3.648-3.84-1.728-.864-2.112-4.128-1.632-7.968l1.536-11.328c1.056-8.64 2.208-12.576 2.208-14.784 0-2.016-1.44-3.936-4.512-3.936-3.168 0-6.432 1.344-9.696 3.648-3.648-2.496-8.448-4.128-13.536-4.128-16.8 0-28.032 14.4-28.032 31.104.096 12.096 6.816 20.16 16.416 20.16zm2.784-20.064c0-10.272 4.608-23.712 10.752-23.712 3.36 0 5.28 2.784 5.28 8.352 0 10.656-4.224 24.48-10.656 24.48-3.264 0-5.376-2.976-5.376-9.12zM605.298 80.056c3.456 0 11.232-1.728 15.84-4.512 1.536-.96 2.784-2.208 2.784-4.128 0-1.632-1.344-2.88-2.976-3.36-1.536-.672-1.536-3.552-1.152-6.72l1.632-13.44c.192-1.536.384-2.88.384-4.896 0-8.736-4.512-13.92-12.576-13.92-7.968 0-14.496 4.896-18.24 11.424.384-3.168.672-5.088.672-6.048 0-2.784-2.304-4.896-5.184-4.896-3.264 0-11.232 1.728-15.936 4.512-1.44.96-2.784 2.208-2.784 4.032 0 1.536 1.44 2.88 3.072 3.264 1.248.672 1.632 3.648 1.248 6.624l-2.304 18.624c-.384 3.264-.768 5.856-.768 7.296 0 4.32 2.016 5.856 7.2 5.856 6.816 0 10.752-1.92 11.328-6.816l2.4-19.68c1.536-8.352 5.28-11.904 8.64-11.904 3.264 0 4.128 2.88 4.128 6.048 0 2.304-.288 4.896-.576 7.104l-1.248 9.888c-.576 5.28-1.152 8.928-1.152 10.272 0 3.648 2.208 5.376 5.568 5.376zM645.173 80.536c7.68 0 14.016-4.704 17.664-11.04-.288 2.784-.48 4.608-.48 5.472 0 2.784 2.112 5.088 5.376 5.088 2.976 0 11.616-1.92 15.648-4.512 1.44-.864 2.784-2.208 2.784-3.936 0-1.728-1.344-2.784-3.072-3.456-1.728-.864-1.536-3.744-1.248-6.432l2.016-16.128c.672-5.28 1.248-9.12 1.248-10.848 0-3.36-2.304-5.184-5.568-5.184-3.936 0-12.096 2.304-15.648 4.608-1.536.96-2.784 2.112-2.784 3.936 0 1.728 1.344 2.976 3.072 3.552 1.536.96 1.248 3.936.864 6.624l-.672 5.376c-1.152 10.272-5.28 14.592-8.832 14.592-3.072 0-4.032-2.88-4.032-6.336 0-2.208.288-4.608.576-6.816l1.248-9.888c.672-5.76 1.152-8.736 1.152-10.368 0-3.552-2.304-5.28-5.664-5.28-3.456 0-11.712 1.92-15.936 4.512-1.536.96-2.784 2.208-2.784 3.936 0 1.824 1.44 2.976 3.36 3.648 1.536.864 1.344 3.648.96 6.624l-1.632 13.536c-.192 1.44-.384 2.688-.384 4.608 0 8.928 4.704 14.112 12.768 14.112zM711.071 80.536c14.4 0 23.424-6.336 23.424-16.224 0-8.448-5.76-12.192-12.864-15.648-7.776-3.744-9.792-4.992-9.792-7.872 0-2.496 2.304-4.128 5.184-4.128 2.88 0 4.992 1.536 6.528 3.456 1.824 2.208 3.552 6.048 7.296 6.048 3.36 0 5.376-2.784 5.376-5.856 0-6.528-9.312-11.52-20.544-11.52-13.152 0-22.08 6.72-22.08 16.032 0 8.16 6.24 12.384 13.152 15.84 6.048 2.976 8.928 4.032 8.928 7.488 0 2.592-2.4 4.416-5.856 4.416-3.072 0-5.76-1.248-7.968-4.992-1.056-1.92-2.688-5.664-6.624-5.664-3.264 0-5.568 2.688-5.568 6.432 0 6.72 8.544 12.192 21.408 12.192z" stroke="#fff" stroke-width="18" mask="url(#a)"/>
    </g>
    <defs>
        <filter id="filter0_d" x=".399994" y=".399994" width="748.823" height="97.136" filterUnits="userSpaceOnUse" color-interpolation-filters="sRGB">
            <feFlood flood-opacity="0" result="BackgroundImageFix"/>
            <feColorMatrix in="SourceAlpha" values="0 0 0 0 0 0 0 0 0 0 0 0 0 0 0 0 0 0 127 0"/>
            <feOffset dy="4"/>
            <feGaussianBlur stdDeviation="2"/>
            <feColorMatrix values="0 0 0 0 0 0 0 0 0 0 0 0 0 0 0 0 0 0 0.25 0"/>
            <feBlend in2="BackgroundImageFix" result="effect1_dropShadow"/>
            <feBlend in="SourceGraphic" in2="effect1_dropShadow" result="shape"/>
        </filter>
    </defs>
</svg>