
<svg width="768" height="174" viewBox="0 0 768 174" fill="none" xmlns="http://www.w3.org/2000/svg">
<g filter="url(#filter0_d)">
<mask id="path-1-outside-1" maskUnits="userSpaceOnUse" x="4.57187" y="0.199982" width="759" height="166" fill="black">
<rect fill="white" x="4.57187" y="0.199982" width="759" height="166"/>
<path d="M89.1719 138C86.6385 138.533 83.7052 139.6 80.3719 141.2C77.7052 142.4 75.0385 143.8 72.3719 145.4C69.9719 146.6 67.6385 148.133 65.3719 150C63.9052 151.2 61.8385 153.133 59.1719 155.8C53.8385 151.533 50.6385 149 49.5719 148.2C46.3719 145.8 43.3052 143.867 40.3719 142.4C37.4385 140.933 33.9052 139.533 29.7719 138.2C25.6385 136.867 22.0385 135.8 18.9719 135C21.2385 133 22.8385 130.867 23.7719 128.6C24.7052 126.2 25.1719 122.333 25.1719 117V63.2H14.5719V49.8H25.1719V31C25.1719 27.1333 24.6385 24 23.5719 21.6C22.5052 19.2 20.9052 16.9333 18.7719 14.8L19.5719 13.8C22.3719 14.0667 24.6385 14.7333 26.3719 15.8C27.3052 16.3333 29.5719 18.6 33.1719 22.6H33.9719C37.1719 18.6 40.2385 15.6666 43.1719 13.8C47.0385 11.4 51.5052 10.2 56.5719 10.2L56.9719 11.2C53.6385 13.7333 50.9052 17.2 48.7719 21.6C46.7719 26 45.7719 30.4 45.7719 34.8V71.6L75.1719 47C77.7052 48.7333 79.9052 50.6667 81.7719 52.8C83.7719 54.8 85.3052 56.9333 86.3719 59.2C87.5719 61.4667 88.3052 63.8667 88.5719 66.4C88.9719 68.8 89.1719 71.6667 89.1719 75V138ZM68.9719 138.2V75.4C68.9719 73 68.5052 71.1333 67.5719 69.8C66.7719 68.4667 65.9719 67.3333 65.1719 66.4C64.3719 65.4667 63.3719 65 62.1719 65C60.4385 65 57.1719 67.1333 52.3719 71.4C50.9052 72.7333 48.7052 74.8667 45.7719 77.8V125.6L68.9719 138.2Z"/>
<path d="M157.695 77.6L139.295 92.2C132.762 97.1333 126.362 102.667 120.095 108.8V132L135.895 139.4L150.495 129.4L153.695 133.2C149.829 136 147.562 137.6 146.895 138C143.962 140 141.629 141.733 139.895 143.2L124.495 155.8C123.029 154.733 120.695 153.333 117.495 151.6C114.295 149.867 111.629 148.533 109.495 147.6C107.495 146.667 104.562 145.733 100.695 144.8C99.362 144.533 97.4953 144.133 95.0953 143.6L94.2953 141.4C96.8286 139.133 98.4953 136.933 99.2953 134.8C100.229 132.533 100.695 129.267 100.695 125V65.4C104.695 63.6667 107.695 62.2667 109.695 61.2C110.495 60.8 112.162 59.8 114.695 58.2C117.362 56.4667 119.229 55.2667 120.295 54.6C120.429 54.4667 123.629 51.9333 129.895 47L157.695 77.6ZM139.895 84.8L120.095 62.6V100.6L139.895 84.8Z"/>
<path d="M243.45 138.4L222.25 155.8C217.317 153 213.717 149.4 211.45 145C210.517 143.133 209.917 141.133 209.65 139C209.517 136.867 209.45 133.133 209.45 127.8V74L199.25 63.6L184.85 75.6V134L191.45 140.6L173.45 155.8L157.65 140.6L164.25 133.4V75.4C164.25 72.2 163.983 69.6667 163.45 67.8C162.917 65.9333 161.65 65 159.65 65C158.183 65 156.917 65.3333 155.85 66C155.45 66.1333 154.983 66.5333 154.45 67.2L152.05 64L171.25 47C175.517 49.4 178.717 52.6667 180.85 56.8C182.45 59.6 183.583 62.8 184.25 66.4C184.383 67.6 184.583 69.2667 184.85 71.4L195.25 62.6C196.45 61.6667 198.117 60.1333 200.25 58C206.917 51.3333 210.65 47.6667 211.45 47L227.65 61.8L236.65 53L239.85 56C234.783 61.4667 232.05 64.5333 231.65 65.2C230.45 67.3333 229.85 69.6667 229.85 72.2V131.2C229.85 133.467 230.05 135.267 230.45 136.6C230.85 137.933 231.783 138.6 233.25 138.6C234.05 138.6 235.383 138.067 237.25 137C237.917 136.733 238.85 136.133 240.05 135.2L243.45 138.4Z"/>
<path d="M326.661 138.4L305.461 155.8C300.528 153 296.928 149.4 294.661 145C293.728 143.133 293.128 141.133 292.861 139C292.728 136.867 292.661 133.133 292.661 127.8V74L282.461 63.6L268.061 75.6V134L274.661 140.6L256.661 155.8L240.861 140.6L247.461 133.4V75.4C247.461 72.2 247.194 69.6667 246.661 67.8C246.128 65.9333 244.861 65 242.861 65C241.394 65 240.128 65.3333 239.061 66C238.661 66.1333 238.194 66.5333 237.661 67.2L235.261 64L254.461 47C258.728 49.4 261.928 52.6667 264.061 56.8C265.661 59.6 266.794 62.8 267.461 66.4C267.594 67.6 267.794 69.2667 268.061 71.4L278.461 62.6C279.661 61.6667 281.328 60.1333 283.461 58C290.128 51.3333 293.861 47.6667 294.661 47L310.861 61.8L319.861 53L323.061 56C317.994 61.4667 315.261 64.5333 314.861 65.2C313.661 67.3333 313.061 69.6667 313.061 72.2V131.2C313.061 133.467 313.261 135.267 313.661 136.6C314.061 137.933 314.994 138.6 316.461 138.6C317.261 138.6 318.594 138.067 320.461 137C321.128 136.733 322.061 136.133 323.261 135.2L326.661 138.4Z"/>
<path d="M392.872 138.2C389.805 139.133 386.672 140.267 383.472 141.6C381.205 142.533 378.405 143.867 375.072 145.6C371.205 148 368.139 150 365.872 151.6C363.739 153.067 361.939 154.467 360.472 155.8C354.472 151 348.405 147.2 342.272 144.4C336.539 141.467 329.739 139.133 321.872 137.4C324.272 135.8 325.805 133.533 326.472 130.6C327.272 127.533 327.672 123.333 327.672 118V64.2C334.472 62.3333 338.139 61.3333 338.672 61.2C340.405 60.5333 342.339 59.6 344.472 58.4C349.672 55.4667 354.339 51.6667 358.472 47C361.272 49 364.472 51.0667 368.072 53.2C371.805 55.3333 374.805 57 377.072 58.2C379.472 59.4 381.405 60.2 382.872 60.6C384.472 61 387.805 61.6667 392.872 62.6V138.2ZM372.472 137.6V74.2C370.072 73.4 368.072 72.8 366.472 72.4C365.005 71.8667 363.072 71 360.672 69.8L348.272 64.2V128.2L360.672 133.2L372.472 137.6Z"/>
<path d="M436.87 13.8L419.47 37H417.47L422.67 13L422.87 11.4H436.87V13.8ZM439.67 138L419.27 155.8C416.87 154.6 414.804 153.2 413.07 151.6C411.47 149.867 410.137 147.933 409.07 145.8C407.07 141.8 406.07 135.8 406.07 127.8V69.4L399.47 61.8L416.27 47L433.87 61.8L426.27 70.2V131.2C426.27 132.8 426.87 134.267 428.07 135.6C429.27 136.933 430.737 137.6 432.47 137.6L436.27 134.8L439.67 138Z"/>
<path d="M514.731 42C514.731 44.2666 514.198 46.6 513.131 49C512.065 51.4 510.331 54.2 507.931 57.4L486.531 86.4L507.331 98V139C505.065 139.8 502.731 140.667 500.331 141.6C498.065 142.4 495.665 143.533 493.131 145C490.598 146.467 487.998 148.4 485.331 150.8C482.665 153.2 480.798 154.867 479.731 155.8C476.531 153.4 473.265 151.533 469.931 150.2C466.598 148.733 463.131 148 459.531 148C457.265 148 455.531 148 454.331 148C449.931 148 446.398 148.667 443.731 150C441.198 151.333 438.731 153.267 436.331 155.8L432.331 152.4L460.731 114.2L439.931 101V66.6C442.331 66.2 444.798 65.2 447.331 63.6C450.398 61.4667 452.665 59.9333 454.131 59C455.731 57.9333 457.731 56.0667 460.131 53.4C461.998 51.2667 463.931 49.1333 465.931 47C471.665 50.2 476.931 52.8667 481.731 55C486.531 57 490.665 58 494.131 58C497.598 58 500.731 57.1333 503.531 55.4C506.465 53.6666 507.931 51.5333 507.931 49C507.931 48.6 506.731 46.7333 504.331 43.4C503.131 41.8 502.531 40.2667 502.531 38.8C502.531 37.2 502.931 35.8 503.731 34.6C504.531 33.2666 505.665 32.6 507.131 32.6C509.398 32.6 511.198 33.4666 512.531 35.2C513.998 36.8 514.731 39.0667 514.731 42ZM493.331 70.2C490.931 70.6 488.265 71 485.331 71.4C482.398 71.8 480.265 72 478.931 72C475.731 72 472.598 71.4667 469.531 70.4C466.465 69.2 462.998 67.5333 459.131 65.4V92.4L471.731 99.6L493.331 70.2ZM489.331 138.8V109.6L475.931 101.4L450.931 134.2C452.665 133.533 455.198 133 458.531 132.6C461.998 132.2 464.998 132 467.531 132C474.865 132 482.131 134.267 489.331 138.8Z"/>
<path d="M556.586 139L545.786 147.8L535.386 155.8C533.919 154.333 532.119 152.733 529.986 151C527.986 149.267 525.986 147.533 523.986 145.8C520.253 142.6 515.853 139.933 510.786 137.8V136.4C512.519 135.067 513.786 133.867 514.586 132.8C517.253 129.2 518.586 125.133 518.586 120.6V31C518.586 26.2 515.919 21.1333 510.586 15.8L511.186 14.4C513.853 14.8 516.319 15.6666 518.586 17C520.986 18.3333 523.519 20.4667 526.186 23.4L527.386 23.8C530.453 20.3333 532.853 17.8666 534.586 16.4C538.719 13.2 544.253 11.6 551.186 11.6L551.586 12.6C547.319 14.2 544.186 17.5333 542.186 22.6C540.319 27.5333 539.386 32.5333 539.386 37.6V131L548.386 139L553.386 135.6L556.586 139Z"/>
<path d="M622.981 138.2C619.915 139.133 616.781 140.267 613.581 141.6C611.315 142.533 608.515 143.867 605.181 145.6C601.315 148 598.248 150 595.981 151.6C593.848 153.067 592.048 154.467 590.581 155.8C584.581 151 578.515 147.2 572.381 144.4C566.648 141.467 559.848 139.133 551.981 137.4C554.381 135.8 555.915 133.533 556.581 130.6C557.381 127.533 557.781 123.333 557.781 118V64.2C564.581 62.3333 568.248 61.3333 568.781 61.2C570.515 60.5333 572.448 59.6 574.581 58.4C579.781 55.4667 584.448 51.6667 588.581 47C591.381 49 594.581 51.0667 598.181 53.2C601.915 55.3333 604.915 57 607.181 58.2C609.581 59.4 611.515 60.2 612.981 60.6C614.581 61 617.915 61.6667 622.981 62.6V138.2ZM602.581 137.6V74.2C600.181 73.4 598.181 72.8 596.581 72.4C595.115 71.8667 593.181 71 590.781 69.8L578.381 64.2V128.2L590.781 133.2L602.581 137.6Z"/>
<path d="M705.38 42C705.38 44.2666 704.846 46.6 703.78 49C702.713 51.4 700.98 54.2 698.58 57.4L677.18 86.4L697.98 98V139C695.713 139.8 693.38 140.667 690.98 141.6C688.713 142.4 686.313 143.533 683.78 145C681.246 146.467 678.646 148.4 675.98 150.8C673.313 153.2 671.446 154.867 670.38 155.8C667.18 153.4 663.913 151.533 660.58 150.2C657.246 148.733 653.78 148 650.18 148C647.913 148 646.18 148 644.98 148C640.58 148 637.046 148.667 634.38 150C631.846 151.333 629.38 153.267 626.98 155.8L622.98 152.4L651.38 114.2L630.58 101V66.6C632.98 66.2 635.446 65.2 637.98 63.6C641.046 61.4667 643.313 59.9333 644.78 59C646.38 57.9333 648.38 56.0667 650.78 53.4C652.646 51.2667 654.58 49.1333 656.58 47C662.313 50.2 667.58 52.8667 672.38 55C677.18 57 681.313 58 684.78 58C688.246 58 691.38 57.1333 694.18 55.4C697.113 53.6666 698.58 51.5333 698.58 49C698.58 48.6 697.38 46.7333 694.98 43.4C693.78 41.8 693.18 40.2667 693.18 38.8C693.18 37.2 693.58 35.8 694.38 34.6C695.18 33.2666 696.313 32.6 697.78 32.6C700.046 32.6 701.846 33.4666 703.18 35.2C704.646 36.8 705.38 39.0667 705.38 42ZM683.98 70.2C681.58 70.6 678.913 71 675.98 71.4C673.046 71.8 670.913 72 669.58 72C666.38 72 663.246 71.4667 660.18 70.4C657.113 69.2 653.646 67.5333 649.78 65.4V92.4L662.38 99.6L683.98 70.2ZM679.98 138.8V109.6L666.58 101.4L641.58 134.2C643.313 133.533 645.846 133 649.18 132.6C652.646 132.2 655.646 132 658.18 132C665.513 132 672.78 134.267 679.98 138.8Z"/>
<path d="M753.434 65.2H730.434V131.2L740.434 138L749.034 132.4L752.034 135.8L739.634 145.8C738.301 146.867 736.568 148.4 734.434 150.4C732.434 152.4 730.634 154.2 729.034 155.8C725.034 151.667 720.501 148 715.434 144.8C714.368 144.133 711.834 142.733 707.834 140.6C706.768 140.067 705.234 139.267 703.234 138.2V137C705.501 135.133 707.034 133.133 707.834 131C708.768 128.867 709.234 125.8 709.234 121.8V65.4H701.834V59.4L729.034 23.8H730.434V51.4H753.434V65.2Z"/>
</mask>
<path d="M89.1719 138C86.6385 138.533 83.7052 139.6 80.3719 141.2C77.7052 142.4 75.0385 143.8 72.3719 145.4C69.9719 146.6 67.6385 148.133 65.3719 150C63.9052 151.2 61.8385 153.133 59.1719 155.8C53.8385 151.533 50.6385 149 49.5719 148.2C46.3719 145.8 43.3052 143.867 40.3719 142.4C37.4385 140.933 33.9052 139.533 29.7719 138.2C25.6385 136.867 22.0385 135.8 18.9719 135C21.2385 133 22.8385 130.867 23.7719 128.6C24.7052 126.2 25.1719 122.333 25.1719 117V63.2H14.5719V49.8H25.1719V31C25.1719 27.1333 24.6385 24 23.5719 21.6C22.5052 19.2 20.9052 16.9333 18.7719 14.8L19.5719 13.8C22.3719 14.0667 24.6385 14.7333 26.3719 15.8C27.3052 16.3333 29.5719 18.6 33.1719 22.6H33.9719C37.1719 18.6 40.2385 15.6666 43.1719 13.8C47.0385 11.4 51.5052 10.2 56.5719 10.2L56.9719 11.2C53.6385 13.7333 50.9052 17.2 48.7719 21.6C46.7719 26 45.7719 30.4 45.7719 34.8V71.6L75.1719 47C77.7052 48.7333 79.9052 50.6667 81.7719 52.8C83.7719 54.8 85.3052 56.9333 86.3719 59.2C87.5719 61.4667 88.3052 63.8667 88.5719 66.4C88.9719 68.8 89.1719 71.6667 89.1719 75V138ZM68.9719 138.2V75.4C68.9719 73 68.5052 71.1333 67.5719 69.8C66.7719 68.4667 65.9719 67.3333 65.1719 66.4C64.3719 65.4667 63.3719 65 62.1719 65C60.4385 65 57.1719 67.1333 52.3719 71.4C50.9052 72.7333 48.7052 74.8667 45.7719 77.8V125.6L68.9719 138.2Z" fill="black"/>
<path d="M157.695 77.6L139.295 92.2C132.762 97.1333 126.362 102.667 120.095 108.8V132L135.895 139.4L150.495 129.4L153.695 133.2C149.829 136 147.562 137.6 146.895 138C143.962 140 141.629 141.733 139.895 143.2L124.495 155.8C123.029 154.733 120.695 153.333 117.495 151.6C114.295 149.867 111.629 148.533 109.495 147.6C107.495 146.667 104.562 145.733 100.695 144.8C99.362 144.533 97.4953 144.133 95.0953 143.6L94.2953 141.4C96.8286 139.133 98.4953 136.933 99.2953 134.8C100.229 132.533 100.695 129.267 100.695 125V65.4C104.695 63.6667 107.695 62.2667 109.695 61.2C110.495 60.8 112.162 59.8 114.695 58.2C117.362 56.4667 119.229 55.2667 120.295 54.6C120.429 54.4667 123.629 51.9333 129.895 47L157.695 77.6ZM139.895 84.8L120.095 62.6V100.6L139.895 84.8Z" fill="black"/>
<path d="M243.45 138.4L222.25 155.8C217.317 153 213.717 149.4 211.45 145C210.517 143.133 209.917 141.133 209.65 139C209.517 136.867 209.45 133.133 209.45 127.8V74L199.25 63.6L184.85 75.6V134L191.45 140.6L173.45 155.8L157.65 140.6L164.25 133.4V75.4C164.25 72.2 163.983 69.6667 163.45 67.8C162.917 65.9333 161.65 65 159.65 65C158.183 65 156.917 65.3333 155.85 66C155.45 66.1333 154.983 66.5333 154.45 67.2L152.05 64L171.25 47C175.517 49.4 178.717 52.6667 180.85 56.8C182.45 59.6 183.583 62.8 184.25 66.4C184.383 67.6 184.583 69.2667 184.85 71.4L195.25 62.6C196.45 61.6667 198.117 60.1333 200.25 58C206.917 51.3333 210.65 47.6667 211.45 47L227.65 61.8L236.65 53L239.85 56C234.783 61.4667 232.05 64.5333 231.65 65.2C230.45 67.3333 229.85 69.6667 229.85 72.2V131.2C229.85 133.467 230.05 135.267 230.45 136.6C230.85 137.933 231.783 138.6 233.25 138.6C234.05 138.6 235.383 138.067 237.25 137C237.917 136.733 238.85 136.133 240.05 135.2L243.45 138.4Z" fill="black"/>
<path d="M326.661 138.4L305.461 155.8C300.528 153 296.928 149.4 294.661 145C293.728 143.133 293.128 141.133 292.861 139C292.728 136.867 292.661 133.133 292.661 127.8V74L282.461 63.6L268.061 75.6V134L274.661 140.6L256.661 155.8L240.861 140.6L247.461 133.4V75.4C247.461 72.2 247.194 69.6667 246.661 67.8C246.128 65.9333 244.861 65 242.861 65C241.394 65 240.128 65.3333 239.061 66C238.661 66.1333 238.194 66.5333 237.661 67.2L235.261 64L254.461 47C258.728 49.4 261.928 52.6667 264.061 56.8C265.661 59.6 266.794 62.8 267.461 66.4C267.594 67.6 267.794 69.2667 268.061 71.4L278.461 62.6C279.661 61.6667 281.328 60.1333 283.461 58C290.128 51.3333 293.861 47.6667 294.661 47L310.861 61.8L319.861 53L323.061 56C317.994 61.4667 315.261 64.5333 314.861 65.2C313.661 67.3333 313.061 69.6667 313.061 72.2V131.2C313.061 133.467 313.261 135.267 313.661 136.6C314.061 137.933 314.994 138.6 316.461 138.6C317.261 138.6 318.594 138.067 320.461 137C321.128 136.733 322.061 136.133 323.261 135.2L326.661 138.4Z" fill="black"/>
<path d="M392.872 138.2C389.805 139.133 386.672 140.267 383.472 141.6C381.205 142.533 378.405 143.867 375.072 145.6C371.205 148 368.139 150 365.872 151.6C363.739 153.067 361.939 154.467 360.472 155.8C354.472 151 348.405 147.2 342.272 144.4C336.539 141.467 329.739 139.133 321.872 137.4C324.272 135.8 325.805 133.533 326.472 130.6C327.272 127.533 327.672 123.333 327.672 118V64.2C334.472 62.3333 338.139 61.3333 338.672 61.2C340.405 60.5333 342.339 59.6 344.472 58.4C349.672 55.4667 354.339 51.6667 358.472 47C361.272 49 364.472 51.0667 368.072 53.2C371.805 55.3333 374.805 57 377.072 58.2C379.472 59.4 381.405 60.2 382.872 60.6C384.472 61 387.805 61.6667 392.872 62.6V138.2ZM372.472 137.6V74.2C370.072 73.4 368.072 72.8 366.472 72.4C365.005 71.8667 363.072 71 360.672 69.8L348.272 64.2V128.2L360.672 133.2L372.472 137.6Z" fill="black"/>
<path d="M436.87 13.8L419.47 37H417.47L422.67 13L422.87 11.4H436.87V13.8ZM439.67 138L419.27 155.8C416.87 154.6 414.804 153.2 413.07 151.6C411.47 149.867 410.137 147.933 409.07 145.8C407.07 141.8 406.07 135.8 406.07 127.8V69.4L399.47 61.8L416.27 47L433.87 61.8L426.27 70.2V131.2C426.27 132.8 426.87 134.267 428.07 135.6C429.27 136.933 430.737 137.6 432.47 137.6L436.27 134.8L439.67 138Z" fill="black"/>
<path d="M514.731 42C514.731 44.2666 514.198 46.6 513.131 49C512.065 51.4 510.331 54.2 507.931 57.4L486.531 86.4L507.331 98V139C505.065 139.8 502.731 140.667 500.331 141.6C498.065 142.4 495.665 143.533 493.131 145C490.598 146.467 487.998 148.4 485.331 150.8C482.665 153.2 480.798 154.867 479.731 155.8C476.531 153.4 473.265 151.533 469.931 150.2C466.598 148.733 463.131 148 459.531 148C457.265 148 455.531 148 454.331 148C449.931 148 446.398 148.667 443.731 150C441.198 151.333 438.731 153.267 436.331 155.8L432.331 152.4L460.731 114.2L439.931 101V66.6C442.331 66.2 444.798 65.2 447.331 63.6C450.398 61.4667 452.665 59.9333 454.131 59C455.731 57.9333 457.731 56.0667 460.131 53.4C461.998 51.2667 463.931 49.1333 465.931 47C471.665 50.2 476.931 52.8667 481.731 55C486.531 57 490.665 58 494.131 58C497.598 58 500.731 57.1333 503.531 55.4C506.465 53.6666 507.931 51.5333 507.931 49C507.931 48.6 506.731 46.7333 504.331 43.4C503.131 41.8 502.531 40.2667 502.531 38.8C502.531 37.2 502.931 35.8 503.731 34.6C504.531 33.2666 505.665 32.6 507.131 32.6C509.398 32.6 511.198 33.4666 512.531 35.2C513.998 36.8 514.731 39.0667 514.731 42ZM493.331 70.2C490.931 70.6 488.265 71 485.331 71.4C482.398 71.8 480.265 72 478.931 72C475.731 72 472.598 71.4667 469.531 70.4C466.465 69.2 462.998 67.5333 459.131 65.4V92.4L471.731 99.6L493.331 70.2ZM489.331 138.8V109.6L475.931 101.4L450.931 134.2C452.665 133.533 455.198 133 458.531 132.6C461.998 132.2 464.998 132 467.531 132C474.865 132 482.131 134.267 489.331 138.8Z" fill="black"/>
<path d="M556.586 139L545.786 147.8L535.386 155.8C533.919 154.333 532.119 152.733 529.986 151C527.986 149.267 525.986 147.533 523.986 145.8C520.253 142.6 515.853 139.933 510.786 137.8V136.4C512.519 135.067 513.786 133.867 514.586 132.8C517.253 129.2 518.586 125.133 518.586 120.6V31C518.586 26.2 515.919 21.1333 510.586 15.8L511.186 14.4C513.853 14.8 516.319 15.6666 518.586 17C520.986 18.3333 523.519 20.4667 526.186 23.4L527.386 23.8C530.453 20.3333 532.853 17.8666 534.586 16.4C538.719 13.2 544.253 11.6 551.186 11.6L551.586 12.6C547.319 14.2 544.186 17.5333 542.186 22.6C540.319 27.5333 539.386 32.5333 539.386 37.6V131L548.386 139L553.386 135.6L556.586 139Z" fill="black"/>
<path d="M622.981 138.2C619.915 139.133 616.781 140.267 613.581 141.6C611.315 142.533 608.515 143.867 605.181 145.6C601.315 148 598.248 150 595.981 151.6C593.848 153.067 592.048 154.467 590.581 155.8C584.581 151 578.515 147.2 572.381 144.4C566.648 141.467 559.848 139.133 551.981 137.4C554.381 135.8 555.915 133.533 556.581 130.6C557.381 127.533 557.781 123.333 557.781 118V64.2C564.581 62.3333 568.248 61.3333 568.781 61.2C570.515 60.5333 572.448 59.6 574.581 58.4C579.781 55.4667 584.448 51.6667 588.581 47C591.381 49 594.581 51.0667 598.181 53.2C601.915 55.3333 604.915 57 607.181 58.2C609.581 59.4 611.515 60.2 612.981 60.6C614.581 61 617.915 61.6667 622.981 62.6V138.2ZM602.581 137.6V74.2C600.181 73.4 598.181 72.8 596.581 72.4C595.115 71.8667 593.181 71 590.781 69.8L578.381 64.2V128.2L590.781 133.2L602.581 137.6Z" fill="black"/>
<path d="M705.38 42C705.38 44.2666 704.846 46.6 703.78 49C702.713 51.4 700.98 54.2 698.58 57.4L677.18 86.4L697.98 98V139C695.713 139.8 693.38 140.667 690.98 141.6C688.713 142.4 686.313 143.533 683.78 145C681.246 146.467 678.646 148.4 675.98 150.8C673.313 153.2 671.446 154.867 670.38 155.8C667.18 153.4 663.913 151.533 660.58 150.2C657.246 148.733 653.78 148 650.18 148C647.913 148 646.18 148 644.98 148C640.58 148 637.046 148.667 634.38 150C631.846 151.333 629.38 153.267 626.98 155.8L622.98 152.4L651.38 114.2L630.58 101V66.6C632.98 66.2 635.446 65.2 637.98 63.6C641.046 61.4667 643.313 59.9333 644.78 59C646.38 57.9333 648.38 56.0667 650.78 53.4C652.646 51.2667 654.58 49.1333 656.58 47C662.313 50.2 667.58 52.8667 672.38 55C677.18 57 681.313 58 684.78 58C688.246 58 691.38 57.1333 694.18 55.4C697.113 53.6666 698.58 51.5333 698.58 49C698.58 48.6 697.38 46.7333 694.98 43.4C693.78 41.8 693.18 40.2667 693.18 38.8C693.18 37.2 693.58 35.8 694.38 34.6C695.18 33.2666 696.313 32.6 697.78 32.6C700.046 32.6 701.846 33.4666 703.18 35.2C704.646 36.8 705.38 39.0667 705.38 42ZM683.98 70.2C681.58 70.6 678.913 71 675.98 71.4C673.046 71.8 670.913 72 669.58 72C666.38 72 663.246 71.4667 660.18 70.4C657.113 69.2 653.646 67.5333 649.78 65.4V92.4L662.38 99.6L683.98 70.2ZM679.98 138.8V109.6L666.58 101.4L641.58 134.2C643.313 133.533 645.846 133 649.18 132.6C652.646 132.2 655.646 132 658.18 132C665.513 132 672.78 134.267 679.98 138.8Z" fill="black"/>
<path d="M753.434 65.2H730.434V131.2L740.434 138L749.034 132.4L752.034 135.8L739.634 145.8C738.301 146.867 736.568 148.4 734.434 150.4C732.434 152.4 730.634 154.2 729.034 155.8C725.034 151.667 720.501 148 715.434 144.8C714.368 144.133 711.834 142.733 707.834 140.6C706.768 140.067 705.234 139.267 703.234 138.2V137C705.501 135.133 707.034 133.133 707.834 131C708.768 128.867 709.234 125.8 709.234 121.8V65.4H701.834V59.4L729.034 23.8H730.434V51.4H753.434V65.2Z" fill="black"/>
<path d="M89.1719 138C86.6385 138.533 83.7052 139.6 80.3719 141.2C77.7052 142.4 75.0385 143.8 72.3719 145.4C69.9719 146.6 67.6385 148.133 65.3719 150C63.9052 151.2 61.8385 153.133 59.1719 155.8C53.8385 151.533 50.6385 149 49.5719 148.2C46.3719 145.8 43.3052 143.867 40.3719 142.4C37.4385 140.933 33.9052 139.533 29.7719 138.2C25.6385 136.867 22.0385 135.8 18.9719 135C21.2385 133 22.8385 130.867 23.7719 128.6C24.7052 126.2 25.1719 122.333 25.1719 117V63.2H14.5719V49.8H25.1719V31C25.1719 27.1333 24.6385 24 23.5719 21.6C22.5052 19.2 20.9052 16.9333 18.7719 14.8L19.5719 13.8C22.3719 14.0667 24.6385 14.7333 26.3719 15.8C27.3052 16.3333 29.5719 18.6 33.1719 22.6H33.9719C37.1719 18.6 40.2385 15.6666 43.1719 13.8C47.0385 11.4 51.5052 10.2 56.5719 10.2L56.9719 11.2C53.6385 13.7333 50.9052 17.2 48.7719 21.6C46.7719 26 45.7719 30.4 45.7719 34.8V71.6L75.1719 47C77.7052 48.7333 79.9052 50.6667 81.7719 52.8C83.7719 54.8 85.3052 56.9333 86.3719 59.2C87.5719 61.4667 88.3052 63.8667 88.5719 66.4C88.9719 68.8 89.1719 71.6667 89.1719 75V138ZM68.9719 138.2V75.4C68.9719 73 68.5052 71.1333 67.5719 69.8C66.7719 68.4667 65.9719 67.3333 65.1719 66.4C64.3719 65.4667 63.3719 65 62.1719 65C60.4385 65 57.1719 67.1333 52.3719 71.4C50.9052 72.7333 48.7052 74.8667 45.7719 77.8V125.6L68.9719 138.2Z" stroke="white" stroke-width="20" stroke-linejoin="round" mask="url(#path-1-outside-1)"/>
<path d="M157.695 77.6L139.295 92.2C132.762 97.1333 126.362 102.667 120.095 108.8V132L135.895 139.4L150.495 129.4L153.695 133.2C149.829 136 147.562 137.6 146.895 138C143.962 140 141.629 141.733 139.895 143.2L124.495 155.8C123.029 154.733 120.695 153.333 117.495 151.6C114.295 149.867 111.629 148.533 109.495 147.6C107.495 146.667 104.562 145.733 100.695 144.8C99.362 144.533 97.4953 144.133 95.0953 143.6L94.2953 141.4C96.8286 139.133 98.4953 136.933 99.2953 134.8C100.229 132.533 100.695 129.267 100.695 125V65.4C104.695 63.6667 107.695 62.2667 109.695 61.2C110.495 60.8 112.162 59.8 114.695 58.2C117.362 56.4667 119.229 55.2667 120.295 54.6C120.429 54.4667 123.629 51.9333 129.895 47L157.695 77.6ZM139.895 84.8L120.095 62.6V100.6L139.895 84.8Z" stroke="white" stroke-width="20" stroke-linejoin="round" mask="url(#path-1-outside-1)"/>
<path d="M243.45 138.4L222.25 155.8C217.317 153 213.717 149.4 211.45 145C210.517 143.133 209.917 141.133 209.65 139C209.517 136.867 209.45 133.133 209.45 127.8V74L199.25 63.6L184.85 75.6V134L191.45 140.6L173.45 155.8L157.65 140.6L164.25 133.4V75.4C164.25 72.2 163.983 69.6667 163.45 67.8C162.917 65.9333 161.65 65 159.65 65C158.183 65 156.917 65.3333 155.85 66C155.45 66.1333 154.983 66.5333 154.45 67.2L152.05 64L171.25 47C175.517 49.4 178.717 52.6667 180.85 56.8C182.45 59.6 183.583 62.8 184.25 66.4C184.383 67.6 184.583 69.2667 184.85 71.4L195.25 62.6C196.45 61.6667 198.117 60.1333 200.25 58C206.917 51.3333 210.65 47.6667 211.45 47L227.65 61.8L236.65 53L239.85 56C234.783 61.4667 232.05 64.5333 231.65 65.2C230.45 67.3333 229.85 69.6667 229.85 72.2V131.2C229.85 133.467 230.05 135.267 230.45 136.6C230.85 137.933 231.783 138.6 233.25 138.6C234.05 138.6 235.383 138.067 237.25 137C237.917 136.733 238.85 136.133 240.05 135.2L243.45 138.4Z" stroke="white" stroke-width="20" stroke-linejoin="round" mask="url(#path-1-outside-1)"/>
<path d="M326.661 138.4L305.461 155.8C300.528 153 296.928 149.4 294.661 145C293.728 143.133 293.128 141.133 292.861 139C292.728 136.867 292.661 133.133 292.661 127.8V74L282.461 63.6L268.061 75.6V134L274.661 140.6L256.661 155.8L240.861 140.6L247.461 133.4V75.4C247.461 72.2 247.194 69.6667 246.661 67.8C246.128 65.9333 244.861 65 242.861 65C241.394 65 240.128 65.3333 239.061 66C238.661 66.1333 238.194 66.5333 237.661 67.2L235.261 64L254.461 47C258.728 49.4 261.928 52.6667 264.061 56.8C265.661 59.6 266.794 62.8 267.461 66.4C267.594 67.6 267.794 69.2667 268.061 71.4L278.461 62.6C279.661 61.6667 281.328 60.1333 283.461 58C290.128 51.3333 293.861 47.6667 294.661 47L310.861 61.8L319.861 53L323.061 56C317.994 61.4667 315.261 64.5333 314.861 65.2C313.661 67.3333 313.061 69.6667 313.061 72.2V131.2C313.061 133.467 313.261 135.267 313.661 136.6C314.061 137.933 314.994 138.6 316.461 138.6C317.261 138.6 318.594 138.067 320.461 137C321.128 136.733 322.061 136.133 323.261 135.2L326.661 138.4Z" stroke="white" stroke-width="20" stroke-linejoin="round" mask="url(#path-1-outside-1)"/>
<path d="M392.872 138.2C389.805 139.133 386.672 140.267 383.472 141.6C381.205 142.533 378.405 143.867 375.072 145.6C371.205 148 368.139 150 365.872 151.6C363.739 153.067 361.939 154.467 360.472 155.8C354.472 151 348.405 147.2 342.272 144.4C336.539 141.467 329.739 139.133 321.872 137.4C324.272 135.8 325.805 133.533 326.472 130.6C327.272 127.533 327.672 123.333 327.672 118V64.2C334.472 62.3333 338.139 61.3333 338.672 61.2C340.405 60.5333 342.339 59.6 344.472 58.4C349.672 55.4667 354.339 51.6667 358.472 47C361.272 49 364.472 51.0667 368.072 53.2C371.805 55.3333 374.805 57 377.072 58.2C379.472 59.4 381.405 60.2 382.872 60.6C384.472 61 387.805 61.6667 392.872 62.6V138.2ZM372.472 137.6V74.2C370.072 73.4 368.072 72.8 366.472 72.4C365.005 71.8667 363.072 71 360.672 69.8L348.272 64.2V128.2L360.672 133.2L372.472 137.6Z" stroke="white" stroke-width="20" stroke-linejoin="round" mask="url(#path-1-outside-1)"/>
<path d="M436.87 13.8L419.47 37H417.47L422.67 13L422.87 11.4H436.87V13.8ZM439.67 138L419.27 155.8C416.87 154.6 414.804 153.2 413.07 151.6C411.47 149.867 410.137 147.933 409.07 145.8C407.07 141.8 406.07 135.8 406.07 127.8V69.4L399.47 61.8L416.27 47L433.87 61.8L426.27 70.2V131.2C426.27 132.8 426.87 134.267 428.07 135.6C429.27 136.933 430.737 137.6 432.47 137.6L436.27 134.8L439.67 138Z" stroke="white" stroke-width="20" stroke-linejoin="round" mask="url(#path-1-outside-1)"/>
<path d="M514.731 42C514.731 44.2666 514.198 46.6 513.131 49C512.065 51.4 510.331 54.2 507.931 57.4L486.531 86.4L507.331 98V139C505.065 139.8 502.731 140.667 500.331 141.6C498.065 142.4 495.665 143.533 493.131 145C490.598 146.467 487.998 148.4 485.331 150.8C482.665 153.2 480.798 154.867 479.731 155.8C476.531 153.4 473.265 151.533 469.931 150.2C466.598 148.733 463.131 148 459.531 148C457.265 148 455.531 148 454.331 148C449.931 148 446.398 148.667 443.731 150C441.198 151.333 438.731 153.267 436.331 155.8L432.331 152.4L460.731 114.2L439.931 101V66.6C442.331 66.2 444.798 65.2 447.331 63.6C450.398 61.4667 452.665 59.9333 454.131 59C455.731 57.9333 457.731 56.0667 460.131 53.4C461.998 51.2667 463.931 49.1333 465.931 47C471.665 50.2 476.931 52.8667 481.731 55C486.531 57 490.665 58 494.131 58C497.598 58 500.731 57.1333 503.531 55.4C506.465 53.6666 507.931 51.5333 507.931 49C507.931 48.6 506.731 46.7333 504.331 43.4C503.131 41.8 502.531 40.2667 502.531 38.8C502.531 37.2 502.931 35.8 503.731 34.6C504.531 33.2666 505.665 32.6 507.131 32.6C509.398 32.6 511.198 33.4666 512.531 35.2C513.998 36.8 514.731 39.0667 514.731 42ZM493.331 70.2C490.931 70.6 488.265 71 485.331 71.4C482.398 71.8 480.265 72 478.931 72C475.731 72 472.598 71.4667 469.531 70.4C466.465 69.2 462.998 67.5333 459.131 65.4V92.4L471.731 99.6L493.331 70.2ZM489.331 138.8V109.6L475.931 101.4L450.931 134.2C452.665 133.533 455.198 133 458.531 132.6C461.998 132.2 464.998 132 467.531 132C474.865 132 482.131 134.267 489.331 138.8Z" stroke="white" stroke-width="20" stroke-linejoin="round" mask="url(#path-1-outside-1)"/>
<path d="M556.586 139L545.786 147.8L535.386 155.8C533.919 154.333 532.119 152.733 529.986 151C527.986 149.267 525.986 147.533 523.986 145.8C520.253 142.6 515.853 139.933 510.786 137.8V136.4C512.519 135.067 513.786 133.867 514.586 132.8C517.253 129.2 518.586 125.133 518.586 120.6V31C518.586 26.2 515.919 21.1333 510.586 15.8L511.186 14.4C513.853 14.8 516.319 15.6666 518.586 17C520.986 18.3333 523.519 20.4667 526.186 23.4L527.386 23.8C530.453 20.3333 532.853 17.8666 534.586 16.4C538.719 13.2 544.253 11.6 551.186 11.6L551.586 12.6C547.319 14.2 544.186 17.5333 542.186 22.6C540.319 27.5333 539.386 32.5333 539.386 37.6V131L548.386 139L553.386 135.6L556.586 139Z" stroke="white" stroke-width="20" stroke-linejoin="round" mask="url(#path-1-outside-1)"/>
<path d="M622.981 138.2C619.915 139.133 616.781 140.267 613.581 141.6C611.315 142.533 608.515 143.867 605.181 145.6C601.315 148 598.248 150 595.981 151.6C593.848 153.067 592.048 154.467 590.581 155.8C584.581 151 578.515 147.2 572.381 144.4C566.648 141.467 559.848 139.133 551.981 137.4C554.381 135.8 555.915 133.533 556.581 130.6C557.381 127.533 557.781 123.333 557.781 118V64.2C564.581 62.3333 568.248 61.3333 568.781 61.2C570.515 60.5333 572.448 59.6 574.581 58.4C579.781 55.4667 584.448 51.6667 588.581 47C591.381 49 594.581 51.0667 598.181 53.2C601.915 55.3333 604.915 57 607.181 58.2C609.581 59.4 611.515 60.2 612.981 60.6C614.581 61 617.915 61.6667 622.981 62.6V138.2ZM602.581 137.6V74.2C600.181 73.4 598.181 72.8 596.581 72.4C595.115 71.8667 593.181 71 590.781 69.8L578.381 64.2V128.2L590.781 133.2L602.581 137.6Z" stroke="white" stroke-width="20" stroke-linejoin="round" mask="url(#path-1-outside-1)"/>
<path d="M705.38 42C705.38 44.2666 704.846 46.6 703.78 49C702.713 51.4 700.98 54.2 698.58 57.4L677.18 86.4L697.98 98V139C695.713 139.8 693.38 140.667 690.98 141.6C688.713 142.4 686.313 143.533 683.78 145C681.246 146.467 678.646 148.4 675.98 150.8C673.313 153.2 671.446 154.867 670.38 155.8C667.18 153.4 663.913 151.533 660.58 150.2C657.246 148.733 653.78 148 650.18 148C647.913 148 646.18 148 644.98 148C640.58 148 637.046 148.667 634.38 150C631.846 151.333 629.38 153.267 626.98 155.8L622.98 152.4L651.38 114.2L630.58 101V66.6C632.98 66.2 635.446 65.2 637.98 63.6C641.046 61.4667 643.313 59.9333 644.78 59C646.38 57.9333 648.38 56.0667 650.78 53.4C652.646 51.2667 654.58 49.1333 656.58 47C662.313 50.2 667.58 52.8667 672.38 55C677.18 57 681.313 58 684.78 58C688.246 58 691.38 57.1333 694.18 55.4C697.113 53.6666 698.58 51.5333 698.58 49C698.58 48.6 697.38 46.7333 694.98 43.4C693.78 41.8 693.18 40.2667 693.18 38.8C693.18 37.2 693.58 35.8 694.38 34.6C695.18 33.2666 696.313 32.6 697.78 32.6C700.046 32.6 701.846 33.4666 703.18 35.2C704.646 36.8 705.38 39.0667 705.38 42ZM683.98 70.2C681.58 70.6 678.913 71 675.98 71.4C673.046 71.8 670.913 72 669.58 72C666.38 72 663.246 71.4667 660.18 70.4C657.113 69.2 653.646 67.5333 649.78 65.4V92.4L662.38 99.6L683.98 70.2ZM679.98 138.8V109.6L666.58 101.4L641.58 134.2C643.313 133.533 645.846 133 649.18 132.6C652.646 132.2 655.646 132 658.18 132C665.513 132 672.78 134.267 679.98 138.8Z" stroke="white" stroke-width="20" stroke-linejoin="round" mask="url(#path-1-outside-1)"/>
<path d="M753.434 65.2H730.434V131.2L740.434 138L749.034 132.4L752.034 135.8L739.634 145.8C738.301 146.867 736.568 148.4 734.434 150.4C732.434 152.4 730.634 154.2 729.034 155.8C725.034 151.667 720.501 148 715.434 144.8C714.368 144.133 711.834 142.733 707.834 140.6C706.768 140.067 705.234 139.267 703.234 138.2V137C705.501 135.133 707.034 133.133 707.834 131C708.768 128.867 709.234 125.8 709.234 121.8V65.4H701.834V59.4L729.034 23.8H730.434V51.4H753.434V65.2Z" stroke="white" stroke-width="20" stroke-linejoin="round" mask="url(#path-1-outside-1)"/>
</g>
<defs>
<filter id="filter0_d" x="0.571869" y="0.199982" width="766.862" height="173.6" filterUnits="userSpaceOnUse" color-interpolation-filters="sRGB">
<feFlood flood-opacity="0" result="BackgroundImageFix"/>
<feColorMatrix in="SourceAlpha" type="matrix" values="0 0 0 0 0 0 0 0 0 0 0 0 0 0 0 0 0 0 127 0"/>
<feOffset dy="4"/>
<feGaussianBlur stdDeviation="2"/>
<feColorMatrix type="matrix" values="0 0 0 0 0 0 0 0 0 0 0 0 0 0 0 0 0 0 0.24 0"/>
<feBlend mode="normal" in2="BackgroundImageFix" result="effect1_dropShadow"/>
<feBlend mode="normal" in="SourceGraphic" in2="effect1_dropShadow" result="shape"/>
</filter>
</defs>
</svg>
